<svg width="320" height="187" fill="none"
  xmlns="http://www.w3.org/2000/svg">
  <path d="M4.6 60c-.4-.1-.9-.6-1.5-1.4-.6-.8-1.1-1.6-1.5-2.5-.4-.9-.8-1.8-1.1-2.7-.3-.9-.4-1.6-.2-2.1.1-.6.6-1.4 1.3-2.3.7-.9 1.5-1.9 2.3-2.9.8-1 1.7-1.9 2.5-2.6.8-.8 1.5-1.1 2.1-1.1 1.7-.5 4.3-1.2 7.9-2.2 3.6-1 7.6-2.1 12.1-3.3 4.5-1.2 9.3-2.4 14.2-3.7 5-1.2 9.8-2.4 14.4-3.5s8.7-2.2 12.2-3.1c3.6-.9 6.2-1.5 7.9-1.8.7-.2 1.9-.3 3.5-.5s3.3-.3 5.2-.5c1.8-.1 3.6-.3 5.2-.5 1.6-.1 2.7-.2 3.3-.2 0 2.9-.3 5-.9 6.3-.6 1.3-1.5 2.2-2.7 2.6-1.2.5-2.6.7-4.1.7-1.6 0-3.3.2-5.3.7-1.4.5-3.7 1.1-7 2.1-3.2.9-6.8 1.9-10.8 3.1-3.9 1.1-8.1 2.3-12.6 3.5-4.4 1.2-8.7 2.4-12.7 3.7-4 1.2-7.6 2.3-10.8 3.3-3.2 1-5.5 1.7-7.1 2.2-2.1 2.6-3.3 5-3.6 7.1-.3 2.1-.4 4.6-.4 7.5 0 6.5.4 12.8 1.2 18.6.8 5.9 1.7 12.3 2.8 19.3.3 0 .7 0 1.2.1s.9.1 1.2.1c3.8 0 7.5-.5 11.1-1.5 3.6-1 7.2-2.1 10.8-3.3 3.6-1.2 7.2-2.3 11-3.3 3.7-1 7.6-1.5 11.5-1.5.6 0 1.5 0 2.8.1 1.3.1 2.6.3 3.9.7 1.3.4 2.2.9 3 1.5.7.6.8 1.4.4 2.5L23 117.1v62.6c-2.5 0-4.5-.3-5.9-1-1.4-.7-2.4-1.7-3-3-.6-1.3-.9-2.8-1.1-4.6-.1-1.7-.3-3.8-.4-6.1-.3-2.6-.6-6.6-1.1-12.1-.4-5.5-.9-11.7-1.4-18.6-.5-6.9-1-14.2-1.6-21.8-.6-7.6-1.1-14.9-1.7-21.8-.6-6.9-1.1-13.1-1.5-18.6-.3-5.5-.6-9.5-.7-12.1z" fill="#D38435"/>
  <path d="M93.7.8c2 .3 3.7.9 5.2 1.7 1.5.8 2.6 2.3 3.5 4.5 0 2.9.1 6.9.3 12 .2 5.1.4 11 .6 17.7.2 6.7.5 13.9.7 21.7.3 7.8.6 15.6.8 23.5.3 7.9.5 15.8.7 23.5.2 7.8.4 15 .6 21.7.2 6.7.4 12.6.5 17.8.1 5.2.3 9.1.4 11.9 0 .3 0 .8-.1 1.6s-.1 1.7-.2 2.7c-.1 1.1-.1 2.1-.2 3.1s-.1 1.7-.1 2.2c-.1.9-.2 2-.2 3.3 0 1.3-.1 2.6-.4 3.8-.3 1.2-.7 2.3-1.4 3.3-.6 1-1.7 1.6-3.1 1.7l-3.6-4.8c-.1-.1-.3-3-.5-8.6s-.5-12.8-.8-21.7c-.4-8.9-.7-19-.9-30.1-.3-11.2-.6-22.5-.9-33.9-.4-11.4-.7-22.4-.9-32.9-.3-10.5-.5-19.6-.6-27.2 0-.6 0-1.8.1-3.7.1-1.8.1-3.7.2-5.6.1-1.9.1-3.7.2-5.5 0-1.6.1-2.9.1-3.7zM119 89.7c0-.8.5-1.5 1.4-2.3.9-.8 2-1.4 3.4-1.8 1.3-.5 2.6-.8 3.9-.9 1.3-.2 2.2.1 2.7.7.8 18.9 2.5 33.9 5 45.1 2.5 11.2 5.3 19.4 8.4 24.6 3.2 5.2 6.6 7.8 10.2 7.9 3.7.1 7.2-1.6 10.8-5 3.5-3.4 6.8-8.1 9.8-14 3-5.9 5.5-12.3 7.4-19.2 1.9-6.9 3.1-13.7 3.5-20.6.4-6.9-.1-12.9-1.7-18.3l12.7-1.6c.1 2.3.5 6.1 1.2 11.3.6 5.3 1.3 11.2 2.1 17.8.8 6.6 1.7 13.5 2.6 20.7 1 7.2 1.8 13.8 2.5 20 .7 6.2 1.3 11.4 1.9 15.8.6 4.3.8 7 .8 8.1h-9.1l-9.9-39.5c-2 5.3-4.4 10.4-7.2 15.3s-5.9 9.1-9.2 12.8c-3.3 3.7-6.8 6.5-10.4 8.6-3.7 2.1-7.3 2.9-10.9 2.5-3.6-.4-7.1-2.2-10.4-5.4-3.4-3.2-6.5-8.3-9.4-15.2-2.9-6.9-5.4-15.9-7.5-26.8-2.1-11.2-3.6-24.6-4.6-40.6zM213.5 48.8c0-1.1.1-2.2.2-3.5.1-1.3.5-2.5.9-3.5.5-1.1 1.1-2 1.9-2.7.8-.8 1.7-1.1 2.8-1.1 1.7 0 3.4.1 5.1.2 1.7.2 3.3.5 4.9 1 1.5.5 2.8 1.4 3.8 2.5s1.5 2.8 1.5 4.9c0 3.7-1.3 6.9-3.8 9.7-2.5 2.8-5.6 4.2-9.3 4.2-2.8 0-4.9-1.2-6.1-3.5-1.2-2.4-1.9-5.2-1.9-8.2zm12.3 1.1c-.4 0-.6.4-.6 1.1 0 .8.2 1.1.6 1.1.6 0 .8-.4.8-1.1 0-.7-.3-1.1-.8-1.1zm0 39.8c1.7 0 3.1-.1 4.3-.2 1.2-.1 2.2.6 3.1 2.3.4 6.9.9 13.8 1.5 20.9.6 7.1 1.1 14.2 1.7 21.4.6 7.2.9 14.4 1.2 21.6.2 7.2.2 14.3.1 21.1 0 .9-.2 1.5-.6 1.7-.4.2-1 .3-1.8.2-.8-.1-1.7-.2-2.7-.2-1.1-.1-2.2 0-3.5.3l-3.3-89.1zM242.9 145.2c0-4.1.6-8.6 1.9-13.6 1.3-4.9 3.1-9.5 5.5-13.7 2.4-4.2 5.3-7.7 8.7-10.4 3.4-2.7 7.3-4.1 11.8-4.1 3.4 0 6.4.3 9 1 2.6.7 5.1 1.8 7.4 3.4 2.3 1.6 4.5 3.5 6.5 5.7s4.2 4.8 6.4 7.7L298.8 4c3.8-1.5 6.2-2.1 7.1-1.8.9.3 1.4 1.6 1.4 3.9 0 .3 0 .8-.1 1.4-.1.6-.1 1-.1 1.1-.1 2.9-.2 7-.3 12.3-.1 5.3-.1 11.5 0 18.5s.2 14.6.3 22.7c.1 8.1.3 16.4.4 24.7.1 8.3.3 16.5.5 24.7.2 8.1.3 15.7.4 22.7.1 7 .1 13.2 0 18.6-.1 5.4-.2 9.5-.3 12.2-1.6 3.5-3.7 6.2-6.4 8-2.7 1.8-5.7 3.2-8.9 4-3.2.8-6.4 1.3-9.8 1.5-3.4.1-6.5.2-9.5.2-9.4 0-16.9-3-22.4-9s-8.2-14.2-8.2-24.5zm8.4-6.2c0 3.8.3 7.6.8 11.3.6 3.7 1.5 7 3 9.9 1.4 2.9 3.4 5.2 5.9 7 2.5 1.8 5.8 2.6 9.7 2.6h8.7c3.4 0 6.6-.4 9.7-1.3 3.1-.8 5.7-2.2 7.8-4 2.1-1.8 3.2-4.4 3.2-7.8 0-4-.5-8.5-1.6-13.6s-2.7-10-4.9-14.6-4.9-8.6-8.2-11.9c-3.3-3.3-7.2-4.9-11.7-4.9-3 0-5.8.8-8.4 2.5-2.7 1.7-5 3.8-7.1 6.4-2 2.6-3.7 5.5-5 8.7-1.2 3.3-1.9 6.5-1.9 9.7z" fill="#D38435"/>
  <path d="M15.6 67c-.4-.1-.9-.6-1.5-1.4-.6-.8-1.1-1.6-1.5-2.5-.4-.9-.8-1.8-1.1-2.7-.3-.9-.4-1.6-.2-2.1.1-.6.6-1.4 1.3-2.3.7-.9 1.5-1.9 2.3-2.9.8-1 1.7-1.9 2.5-2.6.8-.8 1.5-1.1 2.1-1.1 1.7-.5 4.3-1.2 7.9-2.2 3.6-1 7.6-2.1 12.1-3.3 4.5-1.2 9.3-2.4 14.2-3.7 5-1.2 9.8-2.4 14.4-3.5s8.7-2.2 12.2-3.1c3.6-.9 6.2-1.5 7.9-1.8.7-.2 1.9-.3 3.5-.5s3.3-.3 5.2-.5c1.8-.1 3.6-.3 5.2-.5 1.6-.1 2.7-.2 3.3-.2 0 2.9-.3 5-.9 6.3-.6 1.3-1.5 2.2-2.7 2.6-1.2.5-2.6.7-4.1.7-1.6 0-3.3.2-5.3.7-1.4.5-3.7 1.1-7 2.1-3.2.9-6.8 1.9-10.8 3.1-3.9 1.1-8.1 2.3-12.6 3.5-4.4 1.2-8.7 2.4-12.7 3.7-4 1.2-7.6 2.3-10.8 3.3-3.2 1-5.5 1.7-7.1 2.2-2.1 2.6-3.3 5-3.6 7.1-.3 2.1-.4 4.6-.4 7.5 0 6.5.4 12.8 1.2 18.6.8 5.9 1.7 12.3 2.8 19.3.3 0 .7 0 1.2.1s.9.1 1.2.1c3.8 0 7.5-.5 11.1-1.5 3.6-1 7.2-2.1 10.8-3.3 3.6-1.2 7.2-2.3 11-3.3 3.7-1 7.6-1.5 11.5-1.5.6 0 1.5 0 2.8.1 1.3.1 2.6.3 3.9.7 1.3.4 2.2.9 3 1.5.7.6.8 1.4.4 2.5L34 124.1v62.6c-2.5 0-4.5-.3-5.9-1-1.4-.7-2.4-1.7-3-3-.6-1.3-.9-2.8-1.1-4.6-.1-1.7-.3-3.8-.4-6.1-.3-2.6-.6-6.6-1.1-12.1-.4-5.5-.9-11.7-1.4-18.6-.5-6.9-1-14.2-1.6-21.8-.6-7.6-1.1-14.9-1.7-21.8-.6-6.9-1.1-13.1-1.5-18.6-.3-5.5-.6-9.5-.7-12.1z" fill="#fff"/>
  <path d="M104.7 7.8c2 .3 3.7.9 5.2 1.7 1.5.8 2.6 2.3 3.5 4.5 0 2.9.1 6.9.3 12 .2 5.1.4 11 .6 17.7.2 6.7.5 13.9.7 21.7.3 7.8.6 15.6.8 23.5.3 7.9.5 15.8.7 23.5.2 7.8.4 15 .6 21.7.2 6.7.4 12.6.5 17.8.1 5.2.3 9.1.4 11.9 0 .3 0 .8-.1 1.6s-.1 1.7-.2 2.7c-.1 1.1-.1 2.1-.2 3.1s-.1 1.7-.1 2.2c-.1.9-.2 2-.2 3.3 0 1.3-.1 2.6-.4 3.8-.3 1.2-.7 2.3-1.4 3.3-.6 1-1.7 1.6-3.1 1.7l-3.6-4.8c-.1-.1-.3-3-.5-8.6s-.5-12.8-.8-21.7c-.4-8.9-.7-19-.9-30.1-.3-11.2-.6-22.5-.9-33.9-.4-11.4-.7-22.4-.9-32.9-.3-10.5-.5-19.6-.6-27.2 0-.6 0-1.8.1-3.7.1-1.8.1-3.7.2-5.6.1-1.9.1-3.7.2-5.5 0-1.6.1-2.9.1-3.7zM130 96.7c0-.8.5-1.5 1.4-2.3.9-.8 2-1.4 3.4-1.8 1.3-.5 2.6-.8 3.9-.9 1.3-.2 2.2.1 2.7.7.8 18.9 2.5 33.9 5 45.1 2.5 11.2 5.3 19.4 8.4 24.6 3.2 5.2 6.6 7.8 10.2 7.9 3.7.1 7.2-1.6 10.8-5 3.5-3.4 6.8-8.1 9.8-14 3-5.9 5.5-12.3 7.4-19.2 1.9-6.9 3.1-13.7 3.5-20.6.4-6.9-.1-12.9-1.7-18.3l12.7-1.6c.1 2.3.5 6.1 1.2 11.3.6 5.3 1.3 11.2 2.1 17.8.8 6.6 1.7 13.5 2.6 20.7 1 7.2 1.8 13.8 2.5 20 .7 6.2 1.3 11.4 1.9 15.8.6 4.3.8 7 .8 8.1h-9.1l-9.9-39.5c-2 5.3-4.4 10.4-7.2 15.3s-5.9 9.1-9.2 12.8c-3.3 3.7-6.8 6.5-10.4 8.6-3.7 2.1-7.3 2.9-10.9 2.5-3.6-.4-7.1-2.2-10.4-5.4-3.4-3.2-6.5-8.3-9.4-15.2-2.9-6.9-5.4-15.9-7.5-26.8-2.1-11.2-3.6-24.6-4.6-40.6zM224.5 55.8c0-1.1.1-2.2.2-3.5.1-1.3.5-2.5.9-3.5.5-1.1 1.1-2 1.9-2.7.8-.8 1.7-1.1 2.8-1.1 1.7 0 3.4.1 5.1.2 1.7.2 3.3.5 4.9 1 1.5.5 2.8 1.4 3.8 2.5s1.5 2.8 1.5 4.9c0 3.7-1.3 6.9-3.8 9.7-2.5 2.8-5.6 4.2-9.3 4.2-2.8 0-4.9-1.2-6.1-3.5-1.2-2.4-1.9-5.2-1.9-8.2zm12.3 1.1c-.4 0-.6.4-.6 1.1 0 .8.2 1.1.6 1.1.6 0 .8-.4.8-1.1 0-.7-.3-1.1-.8-1.1zm0 39.8c1.7 0 3.1-.1 4.3-.2 1.2-.1 2.2.6 3.1 2.3.4 6.9.9 13.8 1.5 20.9.6 7.1 1.1 14.2 1.7 21.4.6 7.2.9 14.4 1.2 21.6.2 7.2.2 14.3.1 21.1 0 .9-.2 1.5-.6 1.7-.4.2-1 .3-1.8.2-.8-.1-1.7-.2-2.7-.2-1.1-.1-2.2 0-3.5.3l-3.3-89.1zM253.9 152.2c0-4.1.6-8.6 1.9-13.6 1.3-4.9 3.1-9.5 5.5-13.7 2.4-4.2 5.3-7.7 8.7-10.4 3.4-2.7 7.3-4.1 11.8-4.1 3.4 0 6.4.3 9 1 2.6.7 5.1 1.8 7.4 3.4 2.3 1.6 4.5 3.5 6.5 5.7s4.2 4.8 6.4 7.7L309.8 11c3.8-1.5 6.2-2.1 7.1-1.8.9.3 1.4 1.6 1.4 3.9 0 .3 0 .8-.1 1.4-.1.6-.1 1-.1 1.1-.1 2.9-.2 7-.3 12.3-.1 5.3-.1 11.5 0 18.5s.2 14.6.3 22.7c.1 8.1.3 16.4.4 24.7.1 8.3.3 16.5.5 24.7.2 8.1.3 15.7.4 22.7.1 7 .1 13.2 0 18.6-.1 5.4-.2 9.5-.3 12.2-1.6 3.5-3.7 6.2-6.4 8-2.7 1.8-5.7 3.2-8.9 4-3.2.8-6.4 1.3-9.8 1.5-3.4.1-6.5.2-9.5.2-9.4 0-16.9-3-22.4-9s-8.2-14.2-8.2-24.5zm8.4-6.2c0 3.8.3 7.6.8 11.3.6 3.7 1.5 7 3 9.9 1.4 2.9 3.4 5.2 5.9 7 2.5 1.8 5.8 2.6 9.7 2.6h8.7c3.4 0 6.6-.4 9.7-1.3 3.1-.8 5.7-2.2 7.8-4 2.1-1.8 3.2-4.4 3.2-7.8 0-4-.5-8.5-1.6-13.6s-2.7-10-4.9-14.6-4.9-8.6-8.2-11.9c-3.3-3.3-7.2-4.9-11.7-4.9-3 0-5.8.8-8.4 2.5-2.7 1.7-5 3.8-7.1 6.4-2 2.6-3.7 5.5-5 8.7-1.2 3.3-1.9 6.5-1.9 9.7z" fill="#fff"/>
</svg>