<svg width="320" height="187" viewBox="0 0 320 187" fill="none" xmlns="http://www.w3.org/2000/svg">
  <path d="M4.59997 60C4.19997 59.9 3.69997 59.4 3.09997 58.6C2.49997 57.8 1.99997 57 1.59997 56.1C1.19997 55.2 0.799975 54.3 0.499975 53.4C0.199975 52.5 0.0999745 51.8 0.299974 51.3C0.399974 50.7 0.899974 49.9 1.59997 49C2.29997 48.1 3.09998 47.1 3.89998 46.1C4.69998 45.1 5.59998 44.2 6.39998 43.5C7.19998 42.7 7.89998 42.4 8.49998 42.4C10.2 41.9 12.8 41.2 16.4 40.2C20 39.2 24 38.1 28.5 36.9C33 35.7 37.8 34.5 42.7 33.2C47.7 32 52.5 30.8 57.1 29.7C61.7 28.6 65.8 27.5 69.3 26.6C72.9 25.7 75.5 25.1 77.2 24.8C77.9 24.6 79.1 24.5 80.7 24.3C82.3 24.1 84 24 85.9 23.8C87.7 23.7 89.5 23.5 91.1 23.3C92.7 23.2 93.8 23.1 94.4 23.1C94.4 26 94.1 28.1 93.5 29.4C92.9 30.7 92 31.6 90.8 32C89.6 32.5 88.2 32.7 86.7 32.7C85.1 32.7 83.4 32.9 81.4 33.4C80 33.9 77.7 34.5 74.4 35.5C71.2 36.4 67.6 37.4 63.6 38.6C59.7 39.7 55.5 40.9 51 42.1C46.6 43.3 42.3 44.5 38.3 45.8C34.3 47 30.7 48.1 27.5 49.1C24.3 50.1 22 50.8 20.4 51.3C18.3 53.9 17.1 56.3 16.8 58.4C16.5 60.5 16.4 63 16.4 65.9C16.4 72.4 16.8 78.7 17.6 84.5C18.4 90.4 19.3 96.8 20.4 103.8C20.7 103.8 21.1 103.8 21.6 103.9C22.1 104 22.5 104 22.8 104C26.6 104 30.3 103.5 33.9 102.5C37.5 101.5 41.1 100.4 44.7 99.2C48.3 98 51.9 96.9 55.7 95.9C59.4 94.9 63.3 94.4 67.2 94.4C67.8 94.4 68.7 94.4 70 94.5C71.3 94.6 72.6 94.8 73.9 95.2C75.2 95.6 76.1 96.1 76.9 96.7C77.6 97.3 77.7 98.1 77.3 99.2L23 117.1V179.7C20.5 179.7 18.5 179.4 17.1 178.7C15.7 178 14.7 177 14.1 175.7C13.5 174.4 13.2 172.9 13 171.1C12.9 169.4 12.7 167.3 12.6 165C12.3 162.4 12 158.4 11.5 152.9C11.1 147.4 10.6 141.2 10.1 134.3C9.59997 127.4 9.09998 120.1 8.49998 112.5C7.89998 104.9 7.39997 97.6 6.79997 90.7C6.19997 83.8 5.69997 77.6 5.29997 72.1C4.99997 66.6 4.69997 62.6 4.59997 60Z" fill="#D38435" />
  <path d="M93.7 0.799988C95.7 1.09999 97.4 1.7 98.9 2.5C100.4 3.3 101.5 4.8 102.4 7C102.4 9.9 102.5 13.9 102.7 19C102.9 24.1 103.1 30 103.3 36.7C103.5 43.4 103.8 50.6 104 58.4C104.3 66.2 104.6 74 104.8 81.9C105.1 89.8 105.3 97.7 105.5 105.4C105.7 113.2 105.9 120.4 106.1 127.1C106.3 133.8 106.5 139.7 106.6 144.9C106.7 150.1 106.9 154 107 156.8C107 157.1 107 157.6 106.9 158.4C106.8 159.2 106.8 160.1 106.7 161.1C106.6 162.2 106.6 163.2 106.5 164.2C106.4 165.2 106.4 165.9 106.4 166.4C106.3 167.3 106.2 168.4 106.2 169.7C106.2 171 106.1 172.3 105.8 173.5C105.5 174.7 105.1 175.8 104.4 176.8C103.8 177.8 102.7 178.4 101.3 178.5L97.7 173.7C97.6 173.6 97.4 170.7 97.2 165.1C97 159.5 96.7 152.3 96.4 143.4C96 134.5 95.7 124.4 95.5 113.3C95.2 102.1 94.9 90.8 94.6 79.4C94.2 68 93.9 57 93.7 46.5C93.4 36 93.2 26.9 93.1 19.3C93.1 18.7 93.1 17.5 93.2 15.6C93.3 13.8 93.3 11.9 93.4 10C93.5 8.1 93.5 6.3 93.6 4.5C93.6 2.9 93.7 1.59999 93.7 0.799988Z" fill="#D38435" />
  <path d="M119 89.7C119 88.9 119.5 88.2 120.4 87.4C121.3 86.6 122.4 86 123.8 85.6C125.1 85.1 126.4 84.8 127.7 84.7C129 84.5 129.9 84.8 130.4 85.4C131.2 104.3 132.9 119.3 135.4 130.5C137.9 141.7 140.7 149.9 143.8 155.1C147 160.3 150.4 162.9 154 163C157.7 163.1 161.2 161.4 164.8 158C168.3 154.6 171.6 149.9 174.6 144C177.6 138.1 180.1 131.7 182 124.8C183.9 117.9 185.1 111.1 185.5 104.2C185.9 97.3 185.4 91.3 183.8 85.9L196.5 84.3C196.6 86.6 197 90.4 197.7 95.6C198.3 100.9 199 106.8 199.8 113.4C200.6 120 201.5 126.9 202.4 134.1C203.4 141.3 204.2 147.9 204.9 154.1C205.6 160.3 206.2 165.5 206.8 169.9C207.4 174.2 207.6 176.9 207.6 178H198.5L188.6 138.5C186.6 143.8 184.2 148.9 181.4 153.8C178.6 158.7 175.5 162.9 172.2 166.6C168.9 170.3 165.4 173.1 161.8 175.2C158.1 177.3 154.5 178.1 150.9 177.7C147.3 177.3 143.8 175.5 140.5 172.3C137.1 169.1 134 164 131.1 157.1C128.2 150.2 125.7 141.2 123.6 130.3C121.5 119.1 120 105.7 119 89.7Z" fill="#D38435" />
  <path d="M213.5 48.8C213.5 47.7 213.6 46.6 213.7 45.3C213.8 44 214.2 42.8 214.6 41.8C215.1 40.7 215.7 39.8 216.5 39.1C217.3 38.3 218.2 38 219.3 38C221 38 222.7 38.1 224.4 38.2C226.1 38.4 227.7 38.7 229.3 39.2C230.8 39.7 232.1 40.6 233.1 41.7C234.1 42.8 234.6 44.5 234.6 46.6C234.6 50.3 233.3 53.5 230.8 56.3C228.3 59.1 225.2 60.5 221.5 60.5C218.7 60.5 216.6 59.3 215.4 57C214.2 54.6 213.5 51.8 213.5 48.8ZM225.8 49.9C225.4 49.9 225.2 50.3 225.2 51C225.2 51.8 225.4 52.1 225.8 52.1C226.4 52.1 226.6 51.7 226.6 51C226.6 50.3 226.3 49.9 225.8 49.9ZM225.8 89.7C227.5 89.7 228.9 89.6 230.1 89.5C231.3 89.4 232.3 90.1 233.2 91.8C233.6 98.7 234.1 105.6 234.7 112.7C235.3 119.8 235.8 126.9 236.4 134.1C237 141.3 237.3 148.5 237.6 155.7C237.8 162.9 237.8 170 237.7 176.8C237.7 177.7 237.5 178.3 237.1 178.5C236.7 178.7 236.1 178.8 235.3 178.7C234.5 178.6 233.6 178.5 232.6 178.5C231.5 178.4 230.4 178.5 229.1 178.8L225.8 89.7Z" fill="#D38435" />
  <path d="M242.9 145.2C242.9 141.1 243.5 136.6 244.8 131.6C246.1 126.7 247.9 122.1 250.3 117.9C252.7 113.7 255.6 110.2 259 107.5C262.4 104.8 266.3 103.4 270.8 103.4C274.2 103.4 277.2 103.7 279.8 104.4C282.4 105.1 284.9 106.2 287.2 107.8C289.5 109.4 291.7 111.3 293.7 113.5C295.7 115.7 297.9 118.3 300.1 121.2L298.8 3.99999C302.6 2.49999 305 1.9 305.9 2.2C306.8 2.5 307.3 3.79996 307.3 6.09996C307.3 6.39996 307.3 6.89999 307.2 7.49999C307.1 8.09999 307.1 8.49996 307.1 8.59996C307 11.5 306.9 15.6 306.8 20.9C306.7 26.2 306.7 32.4 306.8 39.4C306.9 46.4 307 54 307.1 62.1C307.2 70.2 307.4 78.5 307.5 86.8C307.6 95.1 307.8 103.3 308 111.5C308.2 119.6 308.3 127.2 308.4 134.2C308.5 141.2 308.5 147.4 308.4 152.8C308.3 158.2 308.2 162.3 308.1 165C306.5 168.5 304.4 171.2 301.7 173C299 174.8 296 176.2 292.8 177C289.6 177.8 286.4 178.3 283 178.5C279.6 178.6 276.5 178.7 273.5 178.7C264.1 178.7 256.6 175.7 251.1 169.7C245.6 163.7 242.9 155.5 242.9 145.2ZM251.3 139C251.3 142.8 251.6 146.6 252.1 150.3C252.7 154 253.6 157.3 255.1 160.2C256.5 163.1 258.5 165.4 261 167.2C263.5 169 266.8 169.8 270.7 169.8C273.1 169.8 276 169.8 279.4 169.8C282.8 169.8 286 169.4 289.1 168.5C292.2 167.7 294.8 166.3 296.9 164.5C299 162.7 300.1 160.1 300.1 156.7C300.1 152.7 299.6 148.2 298.5 143.1C297.4 138 295.8 133.1 293.6 128.5C291.4 123.9 288.7 119.9 285.4 116.6C282.1 113.3 278.2 111.7 273.7 111.7C270.7 111.7 267.9 112.5 265.3 114.2C262.6 115.9 260.3 118 258.2 120.6C256.2 123.2 254.5 126.1 253.2 129.3C252 132.6 251.3 135.8 251.3 139Z" fill="#D38435" />
  <path d="M15.6 67C15.2 66.9 14.7 66.4 14.1 65.6C13.5 64.8 13 64 12.6 63.1C12.2 62.2 11.8 61.3 11.5 60.4C11.2 59.5 11.1 58.8 11.3 58.3C11.4 57.7 11.9 56.9 12.6 56C13.3 55.1 14.1 54.1 14.9 53.1C15.7 52.1 16.6 51.2 17.4 50.5C18.2 49.7 18.9 49.4 19.5 49.4C21.2 48.9 23.8 48.2 27.4 47.2C31 46.2 35 45.1 39.5 43.9C44 42.7 48.8 41.5 53.7 40.2C58.7 39 63.5 37.8 68.1 36.7C72.7 35.6 76.8 34.5 80.3 33.6C83.9 32.7 86.5 32.1 88.2 31.8C88.9 31.6 90.1 31.5 91.7 31.3C93.3 31.1 95 31 96.9 30.8C98.7 30.7 100.5 30.5 102.1 30.3C103.7 30.2 104.8 30.1 105.4 30.1C105.4 33 105.1 35.1 104.5 36.4C103.9 37.7 103 38.6 101.8 39C100.6 39.5 99.2 39.7 97.7 39.7C96.1 39.7 94.4 39.9 92.4 40.4C91 40.9 88.7 41.5 85.4 42.5C82.2 43.4 78.6 44.4 74.6 45.6C70.7 46.7 66.5 47.9 62 49.1C57.6 50.3 53.3 51.5 49.3 52.8C45.3 54 41.7 55.1 38.5 56.1C35.3 57.1 33 57.8 31.4 58.3C29.3 60.9 28.1 63.3 27.8 65.4C27.5 67.5 27.4 70 27.4 72.9C27.4 79.4 27.8 85.7 28.6 91.5C29.4 97.4 30.3 103.8 31.4 110.8C31.7 110.8 32.1 110.8 32.6 110.9C33.1 111 33.5 111 33.8 111C37.6 111 41.3 110.5 44.9 109.5C48.5 108.5 52.1 107.4 55.7 106.2C59.3 105 62.9 103.9 66.7 102.9C70.4 101.9 74.3 101.4 78.2 101.4C78.8 101.4 79.7 101.4 81 101.5C82.3 101.6 83.6 101.8 84.9 102.2C86.2 102.6 87.1 103.1 87.9 103.7C88.6 104.3 88.7 105.1 88.3 106.2L34 124.1V186.7C31.5 186.7 29.5 186.4 28.1 185.7C26.7 185 25.7 184 25.1 182.7C24.5 181.4 24.2 179.9 24 178.1C23.9 176.4 23.7 174.3 23.6 172C23.3 169.4 23 165.4 22.5 159.9C22.1 154.4 21.6 148.2 21.1 141.3C20.6 134.4 20.1 127.1 19.5 119.5C18.9 111.9 18.4 104.6 17.8 97.7C17.2 90.8 16.7 84.6 16.3 79.1C16 73.6 15.7 69.6 15.6 67Z" fill="white" />
  <path d="M104.7 7.79999C106.7 8.09999 108.4 8.7 109.9 9.5C111.4 10.3 112.5 11.8 113.4 14C113.4 16.9 113.5 20.9 113.7 26C113.9 31.1 114.1 37 114.3 43.7C114.5 50.4 114.8 57.6 115 65.4C115.3 73.2 115.6 81 115.8 88.9C116.1 96.8 116.3 104.7 116.5 112.4C116.7 120.2 116.9 127.4 117.1 134.1C117.3 140.8 117.5 146.7 117.6 151.9C117.7 157.1 117.9 161 118 163.8C118 164.1 118 164.6 117.9 165.4C117.8 166.2 117.8 167.1 117.7 168.1C117.6 169.2 117.6 170.2 117.5 171.2C117.4 172.2 117.4 172.9 117.4 173.4C117.3 174.3 117.2 175.4 117.2 176.7C117.2 178 117.1 179.3 116.8 180.5C116.5 181.7 116.1 182.8 115.4 183.8C114.8 184.8 113.7 185.4 112.3 185.5L108.7 180.7C108.6 180.6 108.4 177.7 108.2 172.1C108 166.5 107.7 159.3 107.4 150.4C107 141.5 106.7 131.4 106.5 120.3C106.2 109.1 105.9 97.8 105.6 86.4C105.2 75 104.9 64 104.7 53.5C104.4 43 104.2 33.9 104.1 26.3C104.1 25.7 104.1 24.5 104.2 22.6C104.3 20.8 104.3 18.9 104.4 17C104.5 15.1 104.5 13.3 104.6 11.5C104.6 9.9 104.7 8.59999 104.7 7.79999Z" fill="white" />
  <path d="M130 96.7C130 95.9 130.5 95.2 131.4 94.4C132.3 93.6 133.4 93 134.8 92.6C136.1 92.1 137.4 91.8 138.7 91.7C140 91.5 140.9 91.8 141.4 92.4C142.2 111.3 143.9 126.3 146.4 137.5C148.9 148.7 151.7 156.9 154.8 162.1C158 167.3 161.4 169.9 165 170C168.7 170.1 172.2 168.4 175.8 165C179.3 161.6 182.6 156.9 185.6 151C188.6 145.1 191.1 138.7 193 131.8C194.9 124.9 196.1 118.1 196.5 111.2C196.9 104.3 196.4 98.3 194.8 92.9L207.5 91.3C207.6 93.6 208 97.4 208.7 102.6C209.3 107.9 210 113.8 210.8 120.4C211.6 127 212.5 133.9 213.4 141.1C214.4 148.3 215.2 154.9 215.9 161.1C216.6 167.3 217.2 172.5 217.8 176.9C218.4 181.2 218.6 183.9 218.6 185H209.5L199.6 145.5C197.6 150.8 195.2 155.9 192.4 160.8C189.6 165.7 186.5 169.9 183.2 173.6C179.9 177.3 176.4 180.1 172.8 182.2C169.1 184.3 165.5 185.1 161.9 184.7C158.3 184.3 154.8 182.5 151.5 179.3C148.1 176.1 145 171 142.1 164.1C139.2 157.2 136.7 148.2 134.6 137.3C132.5 126.1 131 112.7 130 96.7Z" fill="white" />
  <path d="M224.5 55.8C224.5 54.7 224.6 53.6 224.7 52.3C224.8 51 225.2 49.8 225.6 48.8C226.1 47.7 226.7 46.8 227.5 46.1C228.3 45.3 229.2 45 230.3 45C232 45 233.7 45.1 235.4 45.2C237.1 45.4 238.7 45.7 240.3 46.2C241.8 46.7 243.1 47.6 244.1 48.7C245.1 49.8 245.6 51.5 245.6 53.6C245.6 57.3 244.3 60.5 241.8 63.3C239.3 66.1 236.2 67.5 232.5 67.5C229.7 67.5 227.6 66.3 226.4 64C225.2 61.6 224.5 58.8 224.5 55.8ZM236.8 56.9C236.4 56.9 236.2 57.3 236.2 58C236.2 58.8 236.4 59.1 236.8 59.1C237.4 59.1 237.6 58.7 237.6 58C237.6 57.3 237.3 56.9 236.8 56.9ZM236.8 96.7C238.5 96.7 239.9 96.6 241.1 96.5C242.3 96.4 243.3 97.1 244.2 98.8C244.6 105.7 245.1 112.6 245.7 119.7C246.3 126.8 246.8 133.9 247.4 141.1C248 148.3 248.3 155.5 248.6 162.7C248.8 169.9 248.8 177 248.7 183.8C248.7 184.7 248.5 185.3 248.1 185.5C247.7 185.7 247.1 185.8 246.3 185.7C245.5 185.6 244.6 185.5 243.6 185.5C242.5 185.4 241.4 185.5 240.1 185.8L236.8 96.7Z" fill="white" />
  <path d="M253.9 152.2C253.9 148.1 254.5 143.6 255.8 138.6C257.1 133.7 258.9 129.1 261.3 124.9C263.7 120.7 266.6 117.2 270 114.5C273.4 111.8 277.3 110.4 281.8 110.4C285.2 110.4 288.2 110.7 290.8 111.4C293.4 112.1 295.9 113.2 298.2 114.8C300.5 116.4 302.7 118.3 304.7 120.5C306.7 122.7 308.9 125.3 311.1 128.2L309.8 11C313.6 9.49999 316 8.9 316.9 9.2C317.8 9.5 318.3 10.8 318.3 13.1C318.3 13.4 318.3 13.9 318.2 14.5C318.1 15.1 318.1 15.5 318.1 15.6C318 18.5 317.9 22.6 317.8 27.9C317.7 33.2 317.7 39.4 317.8 46.4C317.9 53.4 318 61 318.1 69.1C318.2 77.2 318.4 85.5 318.5 93.8C318.6 102.1 318.8 110.3 319 118.5C319.2 126.6 319.3 134.2 319.4 141.2C319.5 148.2 319.5 154.4 319.4 159.8C319.3 165.2 319.2 169.3 319.1 172C317.5 175.5 315.4 178.2 312.7 180C310 181.8 307 183.2 303.8 184C300.6 184.8 297.4 185.3 294 185.5C290.6 185.6 287.5 185.7 284.5 185.7C275.1 185.7 267.6 182.7 262.1 176.7C256.6 170.7 253.9 162.5 253.9 152.2ZM262.3 146C262.3 149.8 262.6 153.6 263.1 157.3C263.7 161 264.6 164.3 266.1 167.2C267.5 170.1 269.5 172.4 272 174.2C274.5 176 277.8 176.8 281.7 176.8C284.1 176.8 287 176.8 290.4 176.8C293.8 176.8 297 176.4 300.1 175.5C303.2 174.7 305.8 173.3 307.9 171.5C310 169.7 311.1 167.1 311.1 163.7C311.1 159.7 310.6 155.2 309.5 150.1C308.4 145 306.8 140.1 304.6 135.5C302.4 130.9 299.7 126.9 296.4 123.6C293.1 120.3 289.2 118.7 284.7 118.7C281.7 118.7 278.9 119.5 276.3 121.2C273.6 122.9 271.3 125 269.2 127.6C267.2 130.2 265.5 133.1 264.2 136.3C263 139.6 262.3 142.8 262.3 146Z" fill="white" />
</svg>